<svg id="Layer_1" data-name="Layer 1" xmlns="http://www.w3.org/2000/svg" viewBox="0 0 332.52 149.18"><title>logo</title><path d="M38,11.27H36.4q-11.53,0-17.94,5.76t-6.41,20.4q0,4.8.9,6.67a11.26,11.26,0,0,1,.91,2.14q-7,0-10.43-2.91T0,33.68A32.09,32.09,0,0,1,4.53,16.9Q9.07,9.32,19,4.66T44.17,0A119,119,0,0,1,62.56,1.55,87.18,87.18,0,0,0,77.33,3a39.86,39.86,0,0,0,15-2.72q-.25,8.42-4.27,12.43t-11.92,4a53.85,53.85,0,0,1-8.29-.65q-4.14-.64-11.79-2.2L38.21,97H19.56Z"/><path d="M65.15,92.8q-5.31-5-5.31-15.6a64.15,64.15,0,0,1,3.49-19.69,45.79,45.79,0,0,1,11.4-18.59q7.9-7.83,20.08-7.83,14.25,0,14.25,12.43a23.23,23.23,0,0,1-4.15,13.34,30.5,30.5,0,0,1-11,9.78,35.48,35.48,0,0,1-14.63,4.21C79.09,73.44,79,75.17,79,76q0,6.34,2.2,8.61c1.47,1.52,3.84,2.27,7.12,2.27a21.48,21.48,0,0,0,12-3.24,57.64,57.64,0,0,0,11-9.84h4.4q-14.37,24-35.62,24Q70.46,97.79,65.15,92.8ZM89.43,61.26a23.58,23.58,0,0,0,7-7.9,20.52,20.52,0,0,0,2.65-10.1q0-5.31-3.23-5.31-4.66,0-9.14,8.16A62.22,62.22,0,0,0,80.3,64.63,17,17,0,0,0,89.43,61.26Z"/><path d="M146.42,93.58a15.24,15.24,0,0,1-3.69-10.43,33.74,33.74,0,0,1,.65-6.15c.43-2.28.88-4.51,1.36-6.67s.8-3.54,1-4.14q1-4.53,1.94-8.94a36.6,36.6,0,0,0,.91-7.12q0-6.62-4.66-6.61c-2.25,0-4.23,1.1-6,3.3a25.55,25.55,0,0,0-4.15,8.62L125,97H106.34l13.72-64.76h18.66L137.29,39q6.48-7.26,15.16-7.26,6.6,0,10.49,3.63t3.88,11a43.7,43.7,0,0,1-.9,8.35q-.91,4.61-2.59,11.21c-.7,2.68-1.32,5.29-1.88,7.83a29.93,29.93,0,0,0-.84,6,6.14,6.14,0,0,0,1.16,4c.78,1,2.12,1.43,4,1.43A7.67,7.67,0,0,0,172,82.44a32.61,32.61,0,0,0,4.67-8.61h5.44q-4.8,14.25-11.08,19.1a21,21,0,0,1-13,4.86Q150.12,97.79,146.42,93.58Z"/><path d="M189.23,126.16q-4.15-3.24-4.15-9.33A14.1,14.1,0,0,1,191,105a51.65,51.65,0,0,1,15.16-7.45l1.55-6.86q-6.6,7.13-15.54,7.12a16.48,16.48,0,0,1-12.31-5.05Q175,87.69,175,76.94A59.34,59.34,0,0,1,178.8,56.8a46.45,46.45,0,0,1,11.4-17.88,25.11,25.11,0,0,1,18.07-7.32q5.31,0,7.9,1.82a5.58,5.58,0,0,1,2.59,4.79V39l1.43-6.74h18.65L226,92.35a22.86,22.86,0,0,0,10-6.22c2.5-2.76,6.42-7.75,8.14-13.19h5.44a41.55,41.55,0,0,1-11.25,17.79,31.7,31.7,0,0,1-13.47,7.32l-1.94,9.32q-2.59,12.57-8.94,17.3a23.47,23.47,0,0,1-14.38,4.72A16.36,16.36,0,0,1,189.23,126.16Zm11.66-9.85a23.47,23.47,0,0,0,3.23-8.55l.78-3.75q-12.69,4.67-12.69,11a4.37,4.37,0,0,0,1.16,3,4.15,4.15,0,0,0,3.24,1.29C198.08,119.29,199.5,118.3,200.89,116.31Zm5.83-33.8A14.09,14.09,0,0,0,211,75.12l6.6-30.69a5.14,5.14,0,0,0-1.29-3.18,4.83,4.83,0,0,0-4-1.62q-5.17,0-9.32,6a47.63,47.63,0,0,0-6.48,14.5,57.62,57.62,0,0,0-2.33,15c0,4.32.63,7.09,1.88,8.29a6.36,6.36,0,0,0,4.6,1.82A9.43,9.43,0,0,0,206.72,82.51Z"/><path d="M255.67,22.15a9.89,9.89,0,0,1-3-7.25,10.12,10.12,0,0,1,3-7.32,9.79,9.79,0,0,1,7.26-3,10,10,0,0,1,7.31,3.05,10,10,0,0,1,3.05,7.32,9.77,9.77,0,0,1-3.05,7.25,10.05,10.05,0,0,1-7.31,3A9.88,9.88,0,0,1,255.67,22.15Z"/><path d="M273.59,92.05q-4.92-5-4.92-15.8a59.34,59.34,0,0,1,3.82-20.14,46.41,46.41,0,0,1,11.4-17.87A25.1,25.1,0,0,1,302,30.92q5.31,0,7.9,1.81a5.61,5.61,0,0,1,2.59,4.79v.91l1.42-6.86h18.65l-9.32,44a15.89,15.89,0,0,0-.52,4.15,4.74,4.74,0,0,0,1.23,3.69,6.09,6.09,0,0,0,4.08,1.1,6.39,6.39,0,0,0,2.85-.52Q328,91.28,325.4,94.19c-1.73,1.94-4.23,2.92-7.51,2.92a11.89,11.89,0,0,1-8.61-3.18,14.49,14.49,0,0,1-4.08-8.87q-7.9,12-19.3,12A16.47,16.47,0,0,1,273.59,92.05ZM300.73,81.5a16.06,16.06,0,0,0,4.34-8.36l6.21-29.27a5.27,5.27,0,0,0-1.29-3.3A4.84,4.84,0,0,0,306,39q-5.18,0-9.32,6a47.45,47.45,0,0,0-6.48,14.51,57.56,57.56,0,0,0-2.33,15c0,4.32.62,7.08,1.88,8.29a6.35,6.35,0,0,0,4.6,1.81Q297.55,84.54,300.73,81.5Z"/><path d="M215.69,145.94q-4.14-3.24-4.15-9.32,0-12.57,21.25-19.3L252,31.57h18.65l-18.22,80.57c4.15-1.38,9.27-7,11.78-9.82s11.81-16.74,13.54-22.18h5.44c-2.33,7.68-12.68,23.2-16.65,26.78s-10.26,9.62-15.27,10.92l-1.94,9.32q-2.6,12.57-8.94,17.3a23.45,23.45,0,0,1-14.38,4.72A16.31,16.31,0,0,1,215.69,145.94Zm11.66-9.84a23.55,23.55,0,0,0,3.23-8.55l.78-3.75q-12.69,4.65-12.69,11a4.33,4.33,0,0,0,1.16,3,4.13,4.13,0,0,0,3.24,1.3Q225.27,139.08,227.35,136.1Z"/></svg>